<svg width="533" height="208" viewBox="0 0 533 208" fill="none" xmlns="http://www.w3.org/2000/svg">
<path d="M184.985 115.894H169.001L166.357 123.541H157.905L172.336 83.352H181.708L196.139 123.541H187.63L184.985 115.894ZM182.8 109.455L176.993 92.6663L171.186 109.455H182.8Z" fill="white"/>
<path d="M229.304 91.6888V123.541H221.197V119.517C220.162 120.897 218.801 121.989 217.115 122.794C215.467 123.561 213.665 123.944 211.71 123.944C209.219 123.944 207.015 123.426 205.098 122.391C203.182 121.318 201.668 119.766 200.556 117.734C199.483 115.664 198.946 113.211 198.946 110.375V91.6888H206.996V109.225C206.996 111.755 207.628 113.71 208.893 115.09C210.158 116.431 211.883 117.102 214.068 117.102C216.291 117.102 218.035 116.431 219.3 115.09C220.565 113.71 221.197 111.755 221.197 109.225V91.6888H229.304Z" fill="white"/>
<path d="M244.318 98.3008V113.71C244.318 114.783 244.567 115.569 245.065 116.067C245.602 116.527 246.484 116.757 247.71 116.757H251.447V123.541H246.388C239.603 123.541 236.211 120.245 236.211 113.652V98.3008H232.416V91.6888H236.211V83.8119H244.318V91.6888H251.447V98.3008H244.318Z" fill="white"/>
<path d="M269.081 124.059C266.015 124.059 263.255 123.388 260.802 122.047C258.349 120.667 256.413 118.731 254.995 116.239C253.615 113.748 252.925 110.873 252.925 107.615C252.925 104.357 253.634 101.482 255.052 98.9908C256.509 96.4993 258.483 94.5828 260.974 93.2412C263.466 91.8613 266.245 91.1714 269.311 91.1714C272.377 91.1714 275.156 91.8613 277.648 93.2412C280.139 94.5828 282.094 96.4993 283.512 98.9908C284.969 101.482 285.697 104.357 285.697 107.615C285.697 110.873 284.95 113.748 283.455 116.239C281.998 118.731 280.005 120.667 277.475 122.047C274.984 123.388 272.186 124.059 269.081 124.059ZM269.081 117.044C270.538 117.044 271.898 116.699 273.163 116.009C274.466 115.281 275.501 114.208 276.268 112.79C277.035 111.371 277.418 109.647 277.418 107.615C277.418 104.587 276.613 102.268 275.003 100.658C273.432 99.0099 271.496 98.1858 269.196 98.1858C266.896 98.1858 264.961 99.0099 263.389 100.658C261.856 102.268 261.089 104.587 261.089 107.615C261.089 110.643 261.837 112.981 263.331 114.63C264.865 116.239 266.781 117.044 269.081 117.044Z" fill="white"/>
<path d="M328.859 91.2289C332.769 91.2289 335.912 92.4363 338.288 94.8511C340.703 97.2276 341.91 100.562 341.91 104.855V123.541H333.861V105.948C333.861 103.456 333.229 101.559 331.964 100.256C330.699 98.9141 328.974 98.2433 326.789 98.2433C324.604 98.2433 322.86 98.9141 321.557 100.256C320.292 101.559 319.66 103.456 319.66 105.948V123.541H311.61V105.948C311.61 103.456 310.978 101.559 309.713 100.256C308.448 98.9141 306.723 98.2433 304.538 98.2433C302.315 98.2433 300.552 98.9141 299.249 100.256C297.984 101.559 297.351 103.456 297.351 105.948V123.541H289.302V91.6888H297.351V95.541C298.386 94.1995 299.709 93.1454 301.319 92.3788C302.967 91.6122 304.768 91.2289 306.723 91.2289C309.215 91.2289 311.438 91.7655 313.393 92.8387C315.347 93.8737 316.862 95.3685 317.935 97.3234C318.97 95.4835 320.465 94.0078 322.419 92.8962C324.413 91.7847 326.559 91.2289 328.859 91.2289Z" fill="white"/>
<path d="M345.179 107.5C345.179 104.28 345.812 101.425 347.076 98.9333C348.38 96.4418 350.124 94.5253 352.309 93.1837C354.532 91.8422 357.004 91.1714 359.726 91.1714C362.102 91.1714 364.172 91.6505 365.935 92.6088C367.737 93.567 369.174 94.7744 370.247 96.231V91.6888H378.354V123.541H370.247V118.884C369.212 120.379 367.775 121.625 365.935 122.621C364.134 123.58 362.045 124.059 359.668 124.059C356.985 124.059 354.532 123.369 352.309 121.989C350.124 120.609 348.38 118.673 347.076 116.182C345.812 113.652 345.179 110.758 345.179 107.5ZM370.247 107.615C370.247 105.66 369.864 103.993 369.097 102.613C368.331 101.195 367.296 100.122 365.993 99.3932C364.689 98.6266 363.29 98.2433 361.795 98.2433C360.3 98.2433 358.921 98.6075 357.656 99.3357C356.391 100.064 355.356 101.137 354.551 102.555C353.784 103.935 353.401 105.584 353.401 107.5C353.401 109.417 353.784 111.103 354.551 112.56C355.356 113.978 356.391 115.07 357.656 115.837C358.959 116.604 360.339 116.987 361.795 116.987C363.29 116.987 364.689 116.623 365.993 115.894C367.296 115.128 368.331 114.055 369.097 112.675C369.864 111.256 370.247 109.57 370.247 107.615Z" fill="white"/>
<path d="M393.288 98.3008V113.71C393.288 114.783 393.537 115.569 394.035 116.067C394.572 116.527 395.453 116.757 396.68 116.757H400.417V123.541H395.358C388.573 123.541 385.181 120.245 385.181 113.652V98.3008H381.386V91.6888H385.181V83.8119H393.288V91.6888H400.417V98.3008H393.288Z" fill="white"/>
<path d="M407.989 87.8941C406.571 87.8941 405.383 87.4533 404.424 86.5717C403.504 85.6518 403.044 84.521 403.044 83.1795C403.044 81.8379 403.504 80.7263 404.424 79.8447C405.383 78.9248 406.571 78.4648 407.989 78.4648C409.407 78.4648 410.576 78.9248 411.496 79.8447C412.455 80.7263 412.934 81.8379 412.934 83.1795C412.934 84.521 412.455 85.6518 411.496 86.5717C410.576 87.4533 409.407 87.8941 407.989 87.8941ZM411.956 91.6888V123.541H403.907V91.6888H411.956Z" fill="white"/>
<path d="M431.753 124.059C428.687 124.059 425.927 123.388 423.474 122.047C421.021 120.667 419.085 118.731 417.667 116.239C416.287 113.748 415.597 110.873 415.597 107.615C415.597 104.357 416.306 101.482 417.724 98.9908C419.181 96.4993 421.155 94.5828 423.646 93.2412C426.138 91.8613 428.917 91.1714 431.983 91.1714C435.05 91.1714 437.828 91.8613 440.32 93.2412C442.811 94.5828 444.766 96.4993 446.185 98.9908C447.641 101.482 448.369 104.357 448.369 107.615C448.369 110.873 447.622 113.748 446.127 116.239C444.671 118.731 442.677 120.667 440.147 122.047C437.656 123.388 434.858 124.059 431.753 124.059ZM431.753 117.044C433.21 117.044 434.57 116.699 435.835 116.009C437.139 115.281 438.173 114.208 438.94 112.79C439.707 111.371 440.09 109.647 440.09 107.615C440.09 104.587 439.285 102.268 437.675 100.658C436.104 99.0099 434.168 98.1858 431.868 98.1858C429.568 98.1858 427.633 99.0099 426.061 100.658C424.528 102.268 423.761 104.587 423.761 107.615C423.761 110.643 424.509 112.981 426.004 114.63C427.537 116.239 429.453 117.044 431.753 117.044Z" fill="white"/>
<path d="M469.625 91.2289C473.42 91.2289 476.486 92.4363 478.824 94.8511C481.163 97.2276 482.332 100.562 482.332 104.855V123.541H474.282V105.948C474.282 103.418 473.65 101.482 472.385 100.141C471.12 98.7608 469.395 98.0708 467.21 98.0708C464.987 98.0708 463.224 98.7608 461.921 100.141C460.656 101.482 460.023 103.418 460.023 105.948V123.541H451.974V91.6888H460.023V95.656C461.097 94.2761 462.457 93.2029 464.106 92.4363C465.792 91.6313 467.632 91.2289 469.625 91.2289Z" fill="white"/>
<path fill-rule="evenodd" clip-rule="evenodd" d="M92.7196 81.1569C80.5525 81.1569 70.6892 91.0203 70.6892 103.187V104.729H50V103.187C50 79.594 69.1262 60.4678 92.7196 60.4678V81.1569Z" fill="url(#paint0_linear_5_1264)"/>
<path fill-rule="evenodd" clip-rule="evenodd" d="M110.125 104.729V103.188H130.814V104.729C130.814 128.323 111.688 147.449 88.0947 147.449V126.76C100.262 126.76 110.125 116.896 110.125 104.729Z" fill="url(#paint1_linear_5_1264)"/>
<path fill-rule="evenodd" clip-rule="evenodd" d="M91.9481 50V90.8542L127.406 70.8125L91.9481 50ZM88.867 157.917L88.867 117.063L53.4087 137.104L88.867 157.917Z" fill="#4951FF"/>
<defs>
<linearGradient id="paint0_linear_5_1264" x1="90.8939" y1="71.9078" x2="55.8413" y2="72.8814" gradientUnits="userSpaceOnUse">
<stop stop-color="#3A41CE"/>
<stop offset="1" stop-color="#4951FF"/>
</linearGradient>
<linearGradient id="paint1_linear_5_1264" x1="89.9204" y1="136.009" x2="124.973" y2="135.035" gradientUnits="userSpaceOnUse">
<stop stop-color="#3A41CE"/>
<stop offset="1" stop-color="#4951FF"/>
</linearGradient>
</defs>
</svg>
