<svg width="678" height="230" viewBox="0 0 678 230" fill="none" xmlns="http://www.w3.org/2000/svg">
<path d="M205.933 157.03L212.417 155.408V86.2422L205.933 84.6211V83H235.112C246.063 83 254.097 84.7652 259.212 88.2955C264.4 91.7539 266.993 96.2929 266.993 101.913C266.993 105.803 265.877 108.937 263.643 111.315C261.41 113.693 258.564 115.458 255.106 116.61C251.431 117.907 247.468 118.592 243.218 118.664V119.204C248.477 119.42 253.052 120.213 256.943 121.582C260.905 122.879 264.184 124.896 266.777 127.634C269.443 130.372 270.776 133.866 270.776 138.117C270.776 144.529 268.146 149.573 262.887 153.247C257.627 156.849 249.089 158.651 237.274 158.651H205.933V157.03ZM235.112 117.583C237.49 117.583 239.687 116.935 241.705 115.638C243.794 114.269 245.451 112.396 246.676 110.018C247.973 107.568 248.621 104.867 248.621 101.913C248.621 98.7425 247.973 95.9327 246.676 93.483C245.451 91.0334 243.794 89.1241 241.705 87.7552C239.687 86.3863 237.49 85.7018 235.112 85.7018H230.249V117.583H235.112ZM237.274 155.949C241.741 155.949 245.379 154.364 248.189 151.194C250.999 148.024 252.404 143.665 252.404 138.117C252.404 132.569 250.999 128.21 248.189 125.04C245.379 121.87 241.741 120.285 237.274 120.285H230.249V155.949H237.274Z" fill="#1A1B6C"/>
<path d="M272.904 157.03L279.388 155.408V86.2422L272.904 84.6211V83H286.953C293.437 83 296.68 86.2422 296.68 92.7265V155.408L303.164 157.03V158.651H272.904V157.03Z" fill="#1A1B6C"/>
<path d="M332.867 160.272C323.933 160.272 316.908 157.75 311.793 152.707C306.749 147.591 304.228 140.567 304.228 131.633C304.228 122.699 306.749 115.71 311.793 110.667C316.908 105.551 323.933 102.993 332.867 102.993C341.801 102.993 348.79 105.551 353.833 110.667C358.948 115.71 361.506 122.699 361.506 131.633C361.506 140.567 358.948 147.591 353.833 152.707C348.79 157.75 341.801 160.272 332.867 160.272ZM332.867 158.11C335.749 158.11 338.162 156.093 340.108 152.058C342.125 148.024 343.134 141.215 343.134 131.633C343.134 122.05 342.125 115.242 340.108 111.207C338.162 107.172 335.749 105.155 332.867 105.155C329.985 105.155 327.535 107.172 325.518 111.207C323.573 115.242 322.6 122.05 322.6 131.633C322.6 141.215 323.573 148.024 325.518 152.058C327.535 156.093 329.985 158.11 332.867 158.11Z" fill="#1A1B6C"/>
<path d="M390.183 160.272C385.716 160.272 381.718 159.299 378.187 157.354C376.458 156.417 375.053 155.408 373.972 154.328C372.82 155.913 371.559 157.138 370.19 158.002C369.541 158.434 368.821 158.831 368.028 159.191H365.327V140.819H369.649C370.586 143.845 371.955 146.655 373.756 149.248C377.575 154.796 382.33 157.57 388.022 157.57C391.048 157.57 393.317 156.849 394.83 155.408C396.415 153.895 397.208 151.734 397.208 148.924C397.208 146.547 396.127 144.565 393.966 142.98C391.876 141.323 388.562 139.306 384.023 136.928C380.133 134.983 376.962 133.254 374.513 131.741C372.135 130.156 370.082 128.21 368.353 125.905C366.696 123.527 365.867 120.753 365.867 117.583C365.867 113.26 367.704 109.766 371.379 107.1C375.125 104.362 380.853 102.993 388.562 102.993C392.381 102.993 395.911 104.002 399.153 106.019C400.738 106.956 402.107 107.929 403.26 108.937C404.197 107.64 405.457 106.416 407.043 105.263C408.267 104.542 408.988 104.146 409.204 104.074H411.906V122.446H407.583C406.502 119.348 405.169 116.574 403.584 114.125C399.982 108.505 395.695 105.695 390.724 105.695C388.778 105.695 387.121 106.416 385.752 107.857C384.383 109.298 383.699 111.099 383.699 113.26C383.699 115.998 384.852 118.304 387.157 120.177C389.463 121.978 392.957 124.067 397.64 126.445C401.459 128.39 404.485 130.12 406.718 131.633C409.024 133.074 410.969 134.875 412.554 137.036C414.211 139.198 415.04 141.719 415.04 144.601C415.04 155.048 406.754 160.272 390.183 160.272Z" fill="#1A1B6C"/>
<path d="M443.143 160.272C438.676 160.272 434.677 159.299 431.147 157.354C429.418 156.417 428.013 155.408 426.932 154.328C425.779 155.913 424.518 157.138 423.149 158.002C422.501 158.434 421.781 158.831 420.988 159.191H418.286V140.819H422.609C423.546 143.845 424.915 146.655 426.716 149.248C430.534 154.796 435.29 157.57 440.981 157.57C444.007 157.57 446.277 156.849 447.79 155.408C449.375 153.895 450.168 151.734 450.168 148.924C450.168 146.547 449.087 144.565 446.925 142.98C444.836 141.323 441.522 139.306 436.983 136.928C433.092 134.983 429.922 133.254 427.472 131.741C425.095 130.156 423.041 128.21 421.312 125.905C419.655 123.527 418.827 120.753 418.827 117.583C418.827 113.26 420.664 109.766 424.338 107.1C428.085 104.362 433.813 102.993 441.522 102.993C445.34 102.993 448.871 104.002 452.113 106.019C453.698 106.956 455.067 107.929 456.22 108.937C457.156 107.64 458.417 106.416 460.002 105.263C461.227 104.542 461.947 104.146 462.164 104.074H464.865V122.446H460.543C459.462 119.348 458.129 116.574 456.544 114.125C452.941 108.505 448.655 105.695 443.683 105.695C441.738 105.695 440.081 106.416 438.712 107.857C437.343 109.298 436.659 111.099 436.659 113.26C436.659 115.998 437.811 118.304 440.117 120.177C442.422 121.978 445.917 124.067 450.6 126.445C454.418 128.39 457.444 130.12 459.678 131.633C461.983 133.074 463.929 134.875 465.514 137.036C467.171 139.198 467.999 141.719 467.999 144.601C467.999 155.048 459.714 160.272 443.143 160.272Z" fill="#1A1B6C"/>
<path d="M499.345 160.272C490.411 160.272 483.386 157.75 478.271 152.707C473.227 147.591 470.706 140.567 470.706 131.633C470.706 122.699 473.227 115.71 478.271 110.667C483.386 105.551 490.411 102.993 499.345 102.993C508.279 102.993 515.267 105.551 520.311 110.667C525.426 115.71 527.984 122.699 527.984 131.633C527.984 140.567 525.426 147.591 520.311 152.707C515.267 157.75 508.279 160.272 499.345 160.272ZM499.345 158.11C502.227 158.11 504.64 156.093 506.586 152.058C508.603 148.024 509.612 141.215 509.612 131.633C509.612 122.05 508.603 115.242 506.586 111.207C504.64 107.172 502.227 105.155 499.345 105.155C496.463 105.155 494.013 107.172 491.996 111.207C490.05 115.242 489.078 122.05 489.078 131.633C489.078 141.215 490.05 148.024 491.996 152.058C494.013 156.093 496.463 158.11 499.345 158.11Z" fill="#1A1B6C"/>
<path d="M531.264 157.03L537.748 155.408V107.857L531.264 106.236V104.614H540.991C545.241 104.614 548.592 105.983 551.041 108.721C551.978 109.802 552.77 111.135 553.419 112.72C554.5 110.703 555.652 109.081 556.877 107.857C560.119 104.614 563.83 102.993 568.009 102.993C572.187 102.993 575.862 103.93 579.032 105.803C582.202 107.604 584.652 110.09 586.381 113.26C587.462 111.171 588.614 109.478 589.839 108.181C593.153 104.723 596.864 102.993 600.971 102.993C604.789 102.993 608.211 103.786 611.237 105.371C614.336 106.956 616.713 109.117 618.37 111.855C620.099 114.593 620.964 117.583 620.964 120.825V155.408L627.448 157.03V158.651H613.399C606.915 158.651 603.672 155.408 603.672 148.924V120.825C603.672 116.142 602.952 112.648 601.511 110.342C600.07 107.965 598.449 106.776 596.648 106.776C594.558 106.776 592.433 108.217 590.271 111.099C589.407 112.468 588.65 113.909 588.002 115.422V155.408L594.486 157.03V158.651H564.226V157.03L570.71 155.408V120.825C570.71 116.142 569.99 112.648 568.549 110.342C567.108 107.965 565.487 106.776 563.686 106.776C561.596 106.776 559.471 108.217 557.309 111.099C556.445 112.468 555.688 113.909 555.04 115.422V155.408L561.524 157.03V158.651H531.264V157.03Z" fill="#1A1B6C"/>
<path fill-rule="evenodd" clip-rule="evenodd" d="M117.966 179.286C117.269 179.424 116.546 179.469 115.814 179.414C93.1755 177.696 71.7483 165.192 59.54 144.046C47.3316 122.9 47.2163 98.0913 57.0482 77.6272C58.4756 74.6562 61.5699 72.8697 64.8566 73.1191C73.2928 73.7592 81.5608 75.8972 89.2462 79.4222C95.0454 68.1146 103.625 58.4684 114.083 51.3862C116.812 49.5379 120.382 49.5379 123.111 51.3862C133.427 58.3723 141.915 67.8532 147.71 78.9625C155.104 75.711 163.013 73.7308 171.076 73.1191C174.363 72.8697 177.457 74.6562 178.885 77.6272C188.717 98.0913 188.601 122.9 176.393 144.046C164.185 165.192 142.757 177.696 120.119 179.414C119.387 179.469 118.664 179.424 117.966 179.286ZM134.553 166.468C148.122 161.853 160.124 152.487 167.847 139.112C178.126 121.308 178.46 100.49 170.537 83.0702C164.03 83.7015 157.662 85.3656 151.687 87.993C154.602 96.0099 156.191 104.663 156.191 113.687C156.191 134.254 147.934 152.893 134.553 166.468ZM138.973 83.5512C134.132 74.2572 127.119 66.2706 118.597 60.2616C109.893 66.3993 102.762 74.6002 97.9126 84.1502C105.631 89.0861 112.488 95.579 117.966 103.491C123.669 95.2549 130.866 88.5563 138.973 83.5512ZM123.558 113.062C128.516 104.604 135.195 97.769 142.896 92.7484C145.119 99.3222 146.323 106.364 146.323 113.687C146.323 130.593 139.905 146.002 129.354 157.609C132.209 142.947 130.482 127.331 123.558 113.062ZM112.375 113.062C107.64 104.984 101.335 98.387 94.0691 93.4367C91.9926 99.8129 90.8708 106.619 90.8708 113.687C90.8708 129.726 96.6472 144.418 106.25 155.794C103.875 141.664 105.736 126.744 112.375 113.062ZM117.966 162.432C121.671 150.652 121.823 137.8 117.966 125.617C114.11 137.8 114.262 150.652 117.966 162.432ZM68.0862 139.112C76.1592 153.095 88.91 162.695 103.239 167.067C89.5066 153.444 81.0026 134.559 81.0026 113.687C81.0026 104.846 82.5284 96.3619 85.3311 88.4827C79.0448 85.5717 72.2983 83.7398 65.3963 83.0702C57.4726 100.49 57.8073 121.308 68.0862 139.112Z" fill="#EF898B"/>
</svg>
