<svg width="450" height="208" viewBox="0 0 450 208" fill="none" xmlns="http://www.w3.org/2000/svg">
<path fill-rule="evenodd" clip-rule="evenodd" d="M104 158C133.823 158 158 133.823 158 104C158 74.1766 133.823 50 104 50C74.1766 50 50 74.1766 50 104C50 133.823 74.1766 158 104 158ZM107.657 75.6228C112.116 73.6187 117.239 73.7212 121.613 75.9022C128.086 79.1291 127.951 88.4104 121.387 91.4477L106.825 98.1862C105.435 98.8296 103.826 98.8 102.46 98.106L88.771 91.1495C87.3479 90.4263 85.608 90.9937 84.8849 92.4168C84.1617 93.8399 84.7291 95.5797 86.1522 96.3029L102.005 104.359C103.584 105.161 105.444 105.195 107.051 104.451L123.815 96.6939C134.778 91.6208 135.004 76.1185 124.193 70.7289C118.266 67.7744 111.327 67.6355 105.287 70.3504L75.5015 83.7393C73.4259 84.6722 72.0908 86.7361 72.0908 89.0117V98.5216C72.0908 100.714 73.3306 102.717 75.2923 103.695L101.985 117.003C103.609 117.812 105.519 117.812 107.144 117.003L128.62 106.296C129.833 105.691 131.257 106.573 131.257 107.928C131.257 108.619 130.866 109.251 130.247 109.56L106.795 121.252C105.391 121.952 103.738 121.952 102.334 121.252L80.4506 110.342C76.6074 108.426 72.0908 111.221 72.0908 115.515V120.644C72.0908 122.836 73.3306 124.84 75.2923 125.818L101.995 139.13C103.608 139.934 105.504 139.94 107.122 139.146L127.564 129.11C128.996 128.406 129.588 126.674 128.884 125.241C128.181 123.808 126.449 123.217 125.016 123.921L106.795 132.866C105.395 133.554 103.756 133.549 102.36 132.853L79.1425 121.278C78.3637 120.89 77.8715 120.094 77.8715 119.224C77.8715 117.519 79.6647 116.409 81.1905 117.17L101.985 127.537C103.609 128.347 105.52 128.347 107.144 127.537L133.837 114.23C135.798 113.252 137.038 111.248 137.038 109.056V104.981C137.038 100.687 132.521 97.8915 128.678 99.8074L106.795 110.717C105.391 111.417 103.738 111.417 102.334 110.717L80.6406 99.9022C78.9438 99.0563 77.8715 97.3234 77.8715 95.4274V92.2461C77.8715 90.2778 79.0263 88.4927 80.8215 87.6857L107.657 75.6228Z" fill="white"/>
<path d="M191.749 88.5151V100.028H207.209V107.33H191.749V119.5H209.182V127H182.539V81.0156H209.182V88.5151H191.749Z" fill="white"/>
<path d="M224.13 95.8831C225.315 94.1288 226.937 92.7035 228.999 91.6071C231.104 90.5106 233.494 89.9624 236.169 89.9624C239.283 89.9624 242.09 90.7299 244.59 92.2649C247.134 93.7999 249.129 95.9928 250.576 98.8435C252.067 101.65 252.813 104.918 252.813 108.646C252.813 112.373 252.067 115.685 250.576 118.579C249.129 121.43 247.134 123.645 244.59 125.224C242.09 126.802 239.283 127.592 236.169 127.592C233.45 127.592 231.06 127.066 228.999 126.013C226.981 124.917 225.358 123.513 224.13 121.803V127H214.921V78.3184H224.13V95.8831ZM243.406 108.646C243.406 106.453 242.945 104.567 242.024 102.988C241.147 101.365 239.963 100.137 238.472 99.304C237.024 98.4707 235.446 98.0541 233.735 98.0541C232.069 98.0541 230.49 98.4926 228.999 99.3698C227.551 100.203 226.367 101.431 225.446 103.054C224.569 104.676 224.13 106.584 224.13 108.777C224.13 110.97 224.569 112.878 225.446 114.5C226.367 116.123 227.551 117.373 228.999 118.25C230.49 119.084 232.069 119.5 233.735 119.5C235.446 119.5 237.024 119.062 238.472 118.184C239.963 117.307 241.147 116.057 242.024 114.435C242.945 112.812 243.406 110.882 243.406 108.646Z" fill="white"/>
<path d="M273.058 127.592C269.549 127.592 266.391 126.824 263.584 125.289C260.778 123.71 258.563 121.496 256.94 118.645C255.361 115.794 254.572 112.505 254.572 108.777C254.572 105.049 255.383 101.76 257.006 98.9093C258.672 96.0586 260.931 93.8657 263.782 92.3307C266.632 90.7518 269.812 89.9624 273.321 89.9624C276.829 89.9624 280.009 90.7518 282.86 92.3307C285.71 93.8657 287.947 96.0586 289.57 98.9093C291.236 101.76 292.07 105.049 292.07 108.777C292.07 112.505 291.214 115.794 289.504 118.645C287.837 121.496 285.557 123.71 282.662 125.289C279.812 126.824 276.61 127.592 273.058 127.592ZM273.058 119.566C274.724 119.566 276.281 119.171 277.728 118.382C279.219 117.549 280.404 116.321 281.281 114.698C282.158 113.075 282.596 111.102 282.596 108.777C282.596 105.312 281.675 102.659 279.833 100.817C278.035 98.9312 275.821 97.9883 273.189 97.9883C270.558 97.9883 268.343 98.9312 266.545 100.817C264.79 102.659 263.913 105.312 263.913 108.777C263.913 112.242 264.769 114.917 266.479 116.803C268.233 118.645 270.426 119.566 273.058 119.566Z" fill="white"/>
<path d="M312.377 127.592C308.869 127.592 305.711 126.824 302.904 125.289C300.097 123.71 297.883 121.496 296.26 118.645C294.681 115.794 293.892 112.505 293.892 108.777C293.892 105.049 294.703 101.76 296.326 98.9093C297.992 96.0586 300.251 93.8657 303.102 92.3307C305.952 90.7518 309.132 89.9624 312.64 89.9624C316.149 89.9624 319.329 90.7518 322.179 92.3307C325.03 93.8657 327.267 96.0586 328.89 98.9093C330.556 101.76 331.389 105.049 331.389 108.777C331.389 112.505 330.534 115.794 328.824 118.645C327.157 121.496 324.877 123.71 321.982 125.289C319.131 126.824 315.93 127.592 312.377 127.592ZM312.377 119.566C314.044 119.566 315.601 119.171 317.048 118.382C318.539 117.549 319.723 116.321 320.601 114.698C321.478 113.075 321.916 111.102 321.916 108.777C321.916 105.312 320.995 102.659 319.153 100.817C317.355 98.9312 315.14 97.9883 312.509 97.9883C309.877 97.9883 307.663 98.9312 305.865 100.817C304.11 102.659 303.233 105.312 303.233 108.777C303.233 112.242 304.088 114.917 305.799 116.803C307.553 118.645 309.746 119.566 312.377 119.566Z" fill="white"/>
<path d="M357.092 127L344.724 111.474V127H335.514V78.3184H344.724V106.014L356.96 90.5545H368.933L352.881 108.843L369.064 127H357.092Z" fill="white"/>
<path d="M385.247 127.592C382.264 127.592 379.589 127.066 377.221 126.013C374.853 124.917 372.967 123.447 371.563 121.605C370.204 119.763 369.458 117.724 369.327 115.487H378.602C378.778 116.891 379.458 118.053 380.642 118.974C381.87 119.895 383.383 120.355 385.181 120.355C386.935 120.355 388.295 120.005 389.26 119.303C390.268 118.601 390.773 117.702 390.773 116.606C390.773 115.421 390.159 114.544 388.931 113.974C387.747 113.36 385.839 112.702 383.207 112.001C380.488 111.343 378.252 110.663 376.497 109.961C374.787 109.26 373.296 108.185 372.024 106.738C370.796 105.29 370.182 103.339 370.182 100.883C370.182 98.8654 370.752 97.0234 371.892 95.3568C373.076 93.6903 374.743 92.3746 376.892 91.4097C379.085 90.4448 381.65 89.9624 384.589 89.9624C388.931 89.9624 392.395 91.0588 394.983 93.2517C397.571 95.4007 398.996 98.3172 399.259 102.001H390.444C390.312 100.554 389.698 99.4136 388.602 98.5803C387.549 97.7032 386.124 97.2646 384.326 97.2646C382.659 97.2646 381.365 97.5716 380.444 98.1856C379.567 98.7996 379.129 99.6548 379.129 100.751C379.129 101.979 379.743 102.922 380.971 103.58C382.199 104.194 384.106 104.83 386.694 105.488C389.325 106.146 391.496 106.825 393.207 107.527C394.917 108.229 396.386 109.325 397.614 110.816C398.886 112.264 399.544 114.193 399.588 116.606C399.588 118.711 398.996 120.597 397.812 122.263C396.672 123.93 395.005 125.245 392.812 126.21C390.663 127.131 388.141 127.592 385.247 127.592Z" fill="white"/>
</svg>
