<svg width="357" height="150" viewBox="0 0 357 150" fill="none" xmlns="http://www.w3.org/2000/svg">
<path d="M98.587 96.3933C98.9833 101.126 97.3818 105.996 93.7766 109.633C90.1713 113.27 85.3157 114.915 80.5799 114.56C80.1837 109.828 81.7851 104.958 85.3904 101.32C88.9956 97.6832 93.8513 96.0389 98.587 96.3933Z" fill="#FFC83D"/>
<path d="M90.0089 89.8171C85.2826 94.8714 78.4548 97.9013 71.0004 97.5609C63.5468 97.2205 57.0242 93.5815 52.7783 88.1184C57.5046 83.0641 64.3324 80.0341 71.7868 80.3746C79.2404 80.715 85.763 84.354 90.0089 89.8171Z" fill="#FFC83D"/>
<path d="M50 73.5511C50.9873 61.7161 56.9583 50.3713 67.359 42.8984C77.7594 35.4258 90.4158 33.3865 101.947 36.2264C100.96 48.0614 94.9886 59.4062 84.5879 66.8791C74.1876 74.3517 61.5311 76.391 50 73.5511Z" fill="#FFC83D"/>
<path d="M241.719 59.0378V66.2446H246.043V103.922H253.73V66.2446H263.82V59.0378H253.73V51.6632C253.73 49.5491 253.922 47.8517 254.307 46.5703C254.691 45.2891 255.204 44.3923 255.844 43.8797C256.549 43.3032 257.382 43.015 258.343 43.015C259.111 43.015 259.912 43.1752 260.745 43.4953C261.642 43.7516 262.41 44.4242 263.051 45.5133L267.279 39.1713C266.831 38.5306 266.19 37.9221 265.357 37.3457C264.589 36.769 263.66 36.2884 262.571 35.9041C261.482 35.5197 260.232 35.3276 258.823 35.3276C256.132 35.3276 253.826 35.9041 251.904 37.0572C250.047 38.1463 248.605 39.8118 247.58 42.054C246.555 44.2962 246.043 47.1788 246.043 50.7022V59.0378H241.719Z" fill="white"/>
<path d="M121 44.345L121 103.922H155.593V96.2345H129.168V44.345H121Z" fill="white"/>
<path fill-rule="evenodd" clip-rule="evenodd" d="M176.079 104.883C180.82 104.883 184.92 103.954 188.379 102.096C191.902 100.174 194.817 97.3554 197.123 93.64L190.877 89.7002C189.276 92.3908 187.322 94.4088 185.016 95.7539C182.71 97.0351 180.051 97.6758 177.04 97.6758C174.029 97.6758 171.467 97.0351 169.353 95.7539C167.239 94.4728 165.637 92.6149 164.548 90.1807C163.721 88.3307 163.207 86.1847 163.009 83.7426H197.796V82.8777C197.86 82.3653 197.892 81.8847 197.892 81.4363C197.892 76.7599 197.059 72.7241 195.394 69.3288C193.728 65.9335 191.326 63.3391 188.187 61.5452C185.112 59.6877 181.396 58.7588 177.04 58.7588C172.684 58.7588 168.84 59.7196 165.509 61.6414C162.242 63.5633 159.68 66.2539 157.822 69.7132C156.028 73.1725 155.131 77.2083 155.131 81.8207C155.131 86.3691 155.996 90.3727 157.726 93.8321C159.519 97.2914 161.986 100.014 165.125 102C168.328 103.922 171.979 104.883 176.079 104.883ZM164.644 72.7882C164.03 74.0885 163.579 75.5619 163.291 77.2083H189.489C189.341 75.1031 188.811 73.2456 187.898 71.635C186.873 69.7132 185.432 68.2079 183.574 67.1188C181.717 66.0297 179.538 65.4851 177.04 65.4851C174.093 65.4851 171.563 66.1258 169.449 67.407C167.399 68.6241 165.797 70.4179 164.644 72.7882Z" fill="white"/>
<path fill-rule="evenodd" clip-rule="evenodd" d="M229.184 79.6871C227.976 78.8946 226.438 78.1967 224.572 77.5926C222.458 76.8239 219.799 76.4395 216.596 76.4395C211.151 76.4395 206.891 77.7528 203.816 80.3794C200.805 82.9417 199.3 86.3691 199.3 90.6612C199.3 93.6719 200.004 96.2345 201.413 98.3484C202.823 100.463 204.681 102.096 206.987 103.249C209.357 104.338 211.888 104.883 214.578 104.883C217.012 104.883 219.447 104.434 221.881 103.538C224.38 102.641 226.462 101.263 228.127 99.4057C228.525 98.9779 228.877 98.5246 229.184 98.046V103.922H236.871V72.2115C236.871 69.3288 236.135 66.8946 234.661 64.9087C233.252 62.9228 231.234 61.4172 228.608 60.3924C226.045 59.3033 223.034 58.7588 219.575 58.7588C215.475 58.7588 211.952 59.3673 209.005 60.5845C206.122 61.8016 203.848 63.0187 202.182 64.2358L205.93 69.9052C206.634 69.3928 207.596 68.7843 208.813 68.0795C210.03 67.3748 211.503 66.7663 213.233 66.2539C215.027 65.7415 217.012 65.4851 219.191 65.4851C220.536 65.4851 221.817 65.6131 223.034 65.8695C224.251 66.1258 225.308 66.5421 226.205 67.1188C227.166 67.6952 227.903 68.4961 228.415 69.5209C228.928 70.4819 229.184 71.7312 229.184 73.2687V79.6871ZM208.236 86.1449C207.467 87.2981 207.083 88.6754 207.083 90.2769C207.083 91.9424 207.467 93.3837 208.236 94.6008C209.069 95.8179 210.19 96.7469 211.599 97.3876C213.073 97.964 214.738 98.2525 216.596 98.2525C218.966 98.2525 221.08 97.7719 222.938 96.8109C224.86 95.8501 226.365 94.5046 227.454 92.7751C228.608 90.9813 229.184 88.9314 229.184 86.6252V84.9628C227.953 84.3638 226.704 83.8929 225.436 83.5502C223.066 82.8458 220.536 82.4933 217.845 82.4933C215.347 82.4933 213.297 82.8136 211.695 83.4544C210.158 84.0948 209.005 84.9918 208.236 86.1449Z" fill="white"/>
<path fill-rule="evenodd" clip-rule="evenodd" d="M297.176 102.096C293.717 103.954 289.617 104.883 284.877 104.883C280.777 104.883 277.125 103.922 273.922 102C270.783 100.014 268.317 97.2914 266.523 93.8321C264.793 90.3727 263.929 86.3691 263.929 81.8207C263.929 77.2083 264.826 73.1725 266.619 69.7132C268.477 66.2539 271.039 63.5633 274.306 61.6414C277.638 59.7196 281.481 58.7588 285.838 58.7588C290.194 58.7588 293.909 59.6877 296.984 61.5452C300.123 63.3391 302.525 65.9335 304.191 69.3288C305.857 72.7241 306.689 76.7599 306.689 81.4363C306.689 81.8847 306.657 82.3653 306.593 82.8777V83.7426H271.806C272.005 86.1847 272.518 88.3307 273.346 90.1807C274.435 92.6149 276.036 94.4728 278.15 95.7539C280.264 97.0351 282.827 97.6758 285.838 97.6758C288.848 97.6758 291.507 97.0351 293.813 95.7539C296.119 94.4088 298.073 92.3908 299.675 89.7002L305.921 93.64C303.614 97.3554 300.7 100.174 297.176 102.096ZM272.089 77.2083C272.377 75.5619 272.828 74.0885 273.442 72.7882C274.595 70.4179 276.196 68.6241 278.246 67.407C280.36 66.1258 282.891 65.4851 285.838 65.4851C288.336 65.4851 290.514 66.0297 292.372 67.1188C294.229 68.2079 295.671 69.7132 296.696 71.635C297.608 73.2456 298.139 75.1031 298.287 77.2083H272.089Z" fill="white"/>
</svg>
