<svg width="334" height="166" viewBox="0 0 334 166" fill="none" xmlns="http://www.w3.org/2000/svg">
<path d="M98.9087 60.1204C98.9087 65.7098 94.3776 70.2408 88.7883 70.2408C83.199 70.2408 78.6679 65.7098 78.6679 60.1204C78.6679 54.5311 83.199 50 88.7883 50C94.3776 50 98.9087 54.5311 98.9087 60.1204Z" fill="#34BC85"/>
<path d="M83.3331 104.666C64.9237 104.666 50 89.7427 50 71.3334V55.3335C68.4094 55.3335 83.3339 70.2572 83.3339 88.6666L83.3331 104.666Z" fill="#34BC85"/>
<path d="M120 66C101.591 66 86.6669 80.9237 86.6669 99.3331V115.333C105.076 115.333 120 100.409 120 81.9999V66Z" fill="#34BC85"/>
<path d="M181.635 59.9446V100.077H173.586V73.9735L162.834 100.077H156.739L145.93 73.9735V100.077H137.881V59.9446H147.023L159.787 89.7848L172.551 59.9446H181.635Z" fill="#0F5156"/>
<path d="M191.376 64.4293C189.957 64.4293 188.769 63.9885 187.811 63.1069C186.891 62.1869 186.431 61.0562 186.431 59.7146C186.431 58.3731 186.891 57.2615 187.811 56.3799C188.769 55.46 189.957 55 191.376 55C192.794 55 193.963 55.46 194.883 56.3799C195.841 57.2615 196.32 58.3731 196.32 59.7146C196.32 61.0562 195.841 62.1869 194.883 63.1069C193.963 63.9885 192.794 64.4293 191.376 64.4293ZM195.343 68.224V100.077H187.293V68.224H195.343Z" fill="#0F5156"/>
<path d="M218.647 67.764C222.442 67.764 225.508 68.9714 227.846 71.3862C230.184 73.7627 231.353 77.0975 231.353 81.3905V100.077H223.304V82.4829C223.304 79.9531 222.672 78.0174 221.407 76.6758C220.142 75.2959 218.417 74.606 216.232 74.606C214.009 74.606 212.246 75.2959 210.942 76.6758C209.678 78.0174 209.045 79.9531 209.045 82.4829V100.077H200.996V68.224H209.045V72.1912C210.118 70.8113 211.479 69.738 213.127 68.9714C214.814 68.1665 216.654 67.764 218.647 67.764Z" fill="#0F5156"/>
<path d="M246.08 74.836V90.2448C246.08 91.318 246.329 92.1038 246.827 92.6021C247.364 93.0621 248.246 93.2921 249.472 93.2921H253.209V100.077H248.15C241.365 100.077 237.973 96.7801 237.973 90.1873V74.836H232V68.224H237.973V60.3471H246.08V68.224V74.836Z" fill="#0F5156"/>
<path d="M283.388 68.224L263.667 115.14H255.101L262 99.2716L249.236 68.224H258.263L266.485 90.4748L274.822 68.224H283.388Z" fill="#0F5156"/>
</svg>
