<svg width="487" height="196" viewBox="0 0 487 196" fill="none" xmlns="http://www.w3.org/2000/svg">
<path fill-rule="evenodd" clip-rule="evenodd" d="M146.54 94.2759C148.432 103.3 147.556 111.693 144.499 118.692L144.661 118.689C142.041 125.862 133.323 140.869 112.799 145.172C112.018 145.336 111.239 145.466 110.461 145.563C108.503 145.851 106.471 146 104.375 146C80.0683 146 56.1696 125.992 50.9954 101.31C48.5308 89.5538 50.7591 78.8576 56.3957 70.879C59.0138 65.8393 72.7494 53.6168 83.8339 51.2418C84.134 51.1775 84.4225 51.1271 84.6999 51.0901C87.6295 50.3766 90.7543 50 94.044 50C117.91 50 141.414 69.823 146.54 94.2759ZM138.185 92.2069C142.209 111.404 130.276 126.965 111.531 126.965C92.7867 126.965 74.3287 111.404 70.3044 92.2069C66.28 73.0102 78.2131 57.4482 96.9578 57.4482C115.702 57.4482 134.16 73.0102 138.185 92.2069ZM110.388 116.207C124.262 116.207 133.152 104.963 130.244 91.0922C127.337 77.2218 113.732 65.9775 99.8578 65.9775C85.9836 65.9775 77.0936 77.2218 80.0014 91.0922C82.9092 104.963 96.5137 116.207 110.388 116.207ZM122.747 90.0514C124.571 98.7526 118.843 105.806 109.952 105.806C101.062 105.806 92.376 98.7526 90.5519 90.0514C88.7278 81.3501 94.4561 74.2964 103.347 74.2964C112.237 74.2964 120.923 81.3501 122.747 90.0514ZM114.595 90.0516C115.495 94.346 112.668 97.8273 108.28 97.8273C103.892 97.8273 99.6056 94.346 98.7053 90.0516C97.805 85.7572 100.632 82.2759 105.02 82.2759C109.408 82.2759 113.695 85.7572 114.595 90.0516Z" fill="black"/>
<path d="M210.853 120C210.853 120.552 211.301 121 211.853 121H219.455C220.007 121 220.455 120.552 220.455 120V83.4906H211.853C211.301 83.4906 210.853 83.9383 210.853 84.4906V120Z" fill="black"/>
<path d="M211.163 77.5499C212.084 78.517 213.488 79.0005 215.376 79.0005C217.264 79.0005 218.646 78.517 219.521 77.5499C220.396 76.5368 220.833 75.2934 220.833 73.8197C220.833 72.254 220.396 70.9875 219.521 70.0205C218.646 69.0534 217.264 68.5698 215.376 68.5698C213.488 68.5698 212.084 69.0534 211.163 70.0205C210.288 70.9875 209.85 72.254 209.85 73.8197C209.85 75.2934 210.288 76.5368 211.163 77.5499Z" fill="black"/>
<path fill-rule="evenodd" clip-rule="evenodd" d="M195.718 103.454C192.77 104.836 189.178 105.526 184.942 105.526H177.343V120C177.343 120.552 176.895 121 176.343 121H168.534C167.982 121 167.534 120.552 167.534 120V71.2277C167.534 70.6754 167.982 70.2277 168.534 70.2277H176.343C176.451 70.2277 176.555 70.2448 176.652 70.2764C176.75 70.2448 176.854 70.2277 176.962 70.2277H184.942C189.178 70.2277 192.77 70.9185 195.718 72.3C198.711 73.6816 200.991 75.6618 202.556 78.2407C204.122 80.7735 204.905 83.7899 204.905 87.2898V88.3951C204.905 91.895 204.122 94.9344 202.556 97.5133C200.991 100.046 198.711 102.026 195.718 103.454ZM190.744 79.8985C189.409 79.1157 187.751 78.7242 185.771 78.7242H177.343V97.0298H185.771C187.751 97.0298 189.409 96.6383 190.744 95.8554C192.126 95.0726 193.162 93.9903 193.853 92.6088C194.59 91.2272 194.958 89.6385 194.958 87.8424C194.958 86.0464 194.59 84.4576 193.853 83.0761C193.162 81.6945 192.126 80.6354 190.744 79.8985Z" fill="black"/>
<path d="M229.067 121C228.515 121 228.067 120.552 228.067 120V84.4906C228.067 83.9383 228.515 83.4906 229.067 83.4906H234.666C235.218 83.4906 235.666 83.9383 235.666 84.4906V92.7338C235.888 91.7718 236.164 90.8781 236.495 90.0529C237.508 87.474 239.004 85.5399 240.985 84.2504C243.011 82.961 245.521 82.3162 248.514 82.3162H248.928C253.396 82.3162 256.78 83.7669 259.083 86.6681C261.385 89.5233 262.537 93.8061 262.537 99.5165V120C262.537 120.552 262.089 121 261.537 121H253.935C253.383 121 252.935 120.552 252.935 120V98.6876C252.935 96.385 252.267 94.5199 250.932 93.0923C249.642 91.6647 247.846 90.9509 245.544 90.9509C243.195 90.9509 241.284 91.6878 239.81 93.1614C238.383 94.589 237.669 96.5232 237.669 98.9639V120C237.669 120.552 237.221 121 236.669 121H229.067Z" fill="black"/>
<path fill-rule="evenodd" clip-rule="evenodd" d="M298.349 103.454C295.402 104.836 291.81 105.526 287.573 105.526H279.975V120C279.975 120.552 279.527 121 278.975 121H271.165C270.613 121 270.165 120.552 270.165 120V71.2277C270.165 70.6754 270.613 70.2277 271.165 70.2277H278.975C279.082 70.2277 279.186 70.2448 279.284 70.2764C279.381 70.2448 279.485 70.2277 279.593 70.2277H287.573C291.81 70.2277 295.402 70.9185 298.349 72.3C301.342 73.6816 303.622 75.6618 305.188 78.2407C306.754 80.7735 307.536 83.7899 307.536 87.2898V88.3951C307.536 91.895 306.754 94.9344 305.188 97.5133C303.622 100.046 301.342 102.026 298.349 103.454ZM293.376 79.8985C292.04 79.1157 290.382 78.7242 288.402 78.7242H279.975V97.0298H288.402C290.382 97.0298 292.04 96.6383 293.376 95.8554C294.757 95.0726 295.793 93.9903 296.484 92.6088C297.221 91.2272 297.589 89.6385 297.589 87.8424C297.589 86.0464 297.221 84.4576 296.484 83.0761C295.793 81.6945 294.757 80.6354 293.376 79.8985Z" fill="black"/>
<path fill-rule="evenodd" clip-rule="evenodd" d="M328.908 122.312C325.593 122.312 322.668 121.783 320.135 120.723C317.603 119.664 315.461 118.237 313.711 116.441C311.961 114.598 310.626 112.526 309.705 110.224C308.83 107.921 308.392 105.526 308.392 103.039V101.589C308.392 99.01 308.853 96.5692 309.774 94.2666C310.741 91.918 312.099 89.8457 313.849 88.0497C315.645 86.2076 317.81 84.78 320.343 83.7669C322.876 82.7077 325.731 82.1781 328.908 82.1781C332.086 82.1781 334.941 82.7077 337.474 83.7669C340.007 84.78 342.148 86.2076 343.898 88.0497C345.694 89.8457 347.053 91.918 347.974 94.2666C348.895 96.5692 349.355 99.01 349.355 101.589V103.039C349.355 105.526 348.895 107.921 347.974 110.224C347.099 112.526 345.786 114.598 344.036 116.441C342.286 118.237 340.145 119.664 337.612 120.723C335.079 121.783 332.178 122.312 328.908 122.312ZM328.908 114.092C331.257 114.092 333.237 113.585 334.849 112.572C336.461 111.513 337.681 110.108 338.51 108.358C339.339 106.562 339.753 104.536 339.753 102.28C339.753 99.9771 339.316 97.9508 338.441 96.2008C337.612 94.4048 336.369 93.0002 334.711 91.9871C333.099 90.9279 331.165 90.3983 328.908 90.3983C326.652 90.3983 324.695 90.9279 323.037 91.9871C321.425 93.0002 320.182 94.4048 319.307 96.2008C318.432 97.9508 317.994 99.9771 317.994 102.28C317.994 104.536 318.409 106.562 319.237 108.358C320.112 110.108 321.356 111.513 322.968 112.572C324.579 113.585 326.56 114.092 328.908 114.092Z" fill="black"/>
<path d="M356.105 120C356.105 120.552 356.553 121 357.105 121H364.707C365.259 121 365.707 120.552 365.707 120V83.4906H357.105C356.553 83.4906 356.105 83.9383 356.105 84.4906V120Z" fill="black"/>
<path d="M356.414 77.5499C357.335 78.517 358.74 79.0005 360.628 79.0005C362.516 79.0005 363.897 78.517 364.772 77.5499C365.647 76.5368 366.085 75.2934 366.085 73.8197C366.085 72.254 365.647 70.9875 364.772 70.0205C363.897 69.0534 362.516 68.5698 360.628 68.5698C358.74 68.5698 357.335 69.0534 356.414 70.0205C355.539 70.9875 355.102 72.254 355.102 73.8197C355.102 75.2934 355.539 76.5368 356.414 77.5499Z" fill="black"/>
<path d="M374.319 121C373.766 121 373.319 120.552 373.319 120V84.4906C373.319 83.9383 373.766 83.4906 374.319 83.4906H379.917C380.469 83.4906 380.917 83.9383 380.917 84.4906V92.7338C381.14 91.7717 381.416 90.8781 381.746 90.0529C382.759 87.474 384.256 85.5399 386.236 84.2504C388.262 82.961 390.772 82.3162 393.766 82.3162H394.18C398.647 82.3162 402.032 83.7669 404.334 86.6681C406.637 89.5233 407.788 93.8061 407.788 99.5165V120C407.788 120.552 407.341 121 406.788 121H399.187C398.634 121 398.187 120.552 398.187 120V98.6876C398.187 96.385 397.519 94.5199 396.183 93.0923C394.894 91.6647 393.098 90.9509 390.795 90.9509C388.447 90.9509 386.535 91.6878 385.062 93.1614C383.634 94.589 382.92 96.5232 382.92 98.9639V120C382.92 120.552 382.473 121 381.92 121H374.319Z" fill="black"/>
<path d="M422.394 120.171C424.65 121.046 427.506 121.483 430.96 121.483H435.348C435.9 121.483 436.348 121.035 436.348 120.483V114.263C436.348 113.711 435.9 113.263 435.348 113.263H430.476C428.634 113.263 427.206 112.779 426.193 111.812C425.226 110.799 424.743 109.372 424.743 107.53L424.776 90.5365H435.348C435.9 90.5365 436.348 90.0887 436.348 89.5365V84.4906C436.348 83.9383 435.9 83.4906 435.348 83.4906H424.79L424.81 73.9237C424.811 73.3706 424.363 72.9217 423.81 72.9217H416.83C416.278 72.9217 415.831 73.3682 415.83 73.9197L415.81 83.4906H410.822C410.27 83.4906 409.822 83.9383 409.822 84.4906V89.5365C409.822 90.0887 410.27 90.5365 410.822 90.5365H415.796L415.762 106.908C415.762 110.546 416.315 113.447 417.42 115.612C418.526 117.73 420.183 119.25 422.394 120.171Z" fill="black"/>
</svg>
