<svg width="559" height="191" viewBox="0 0 559 191" fill="none" xmlns="http://www.w3.org/2000/svg">
<path d="M106 60H74V50H106C117.046 50 126 58.9543 126 70V102H116V70C116 64.4772 111.523 60 106 60Z" fill="white"/>
<path d="M70 116H102V126H70C58.9543 126 50 117.046 50 106L50 74H60L60 106C60 111.523 64.4772 116 70 116Z" fill="white"/>
<path fill-rule="evenodd" clip-rule="evenodd" d="M108 88C108 99.0457 99.0457 108 88 108C76.9543 108 68 99.0457 68 88C68 76.9543 76.9543 68 88 68C99.0457 68 108 76.9543 108 88ZM98 88C98 93.5229 93.5229 98 88 98C82.4772 98 78 93.5229 78 88C78 82.4772 82.4772 78 88 78C93.5229 78 98 82.4772 98 88Z" fill="white"/>
<path d="M168.675 119.631C164.887 119.631 161.478 118.982 158.448 117.683C155.418 116.33 153.037 114.437 151.305 112.002C149.574 109.567 148.708 106.726 148.708 103.479H158.61C158.827 105.914 159.774 107.916 161.451 109.485C163.183 111.055 165.591 111.839 168.675 111.839C171.867 111.839 174.357 111.082 176.142 109.567C177.928 107.997 178.821 105.995 178.821 103.56C178.821 101.666 178.253 100.124 177.116 98.9338C176.034 97.7434 174.654 96.8235 172.977 96.1742C171.353 95.5248 169.081 94.8214 166.159 94.0639C162.479 93.0899 159.476 92.1159 157.149 91.1419C154.877 90.1138 152.929 88.5445 151.305 86.4342C149.682 84.3239 148.87 81.5101 148.87 77.9929C148.87 74.7463 149.682 71.9054 151.305 69.4705C152.929 67.0355 155.201 65.1686 158.123 63.87C161.045 62.5713 164.427 61.922 168.269 61.922C173.734 61.922 178.198 63.3018 181.662 66.0615C185.179 68.767 187.127 72.5007 187.506 77.2624H177.279C177.116 75.2062 176.142 73.4476 174.357 71.9866C172.571 70.5256 170.217 69.7951 167.295 69.7951C164.644 69.7951 162.479 70.4715 160.802 71.8243C159.124 73.1771 158.286 75.125 158.286 77.6683C158.286 79.3998 158.8 80.8337 159.828 81.9701C160.91 83.0523 162.263 83.9181 163.886 84.5674C165.509 85.2167 167.728 85.9202 170.542 86.6777C174.275 87.7058 177.306 88.7339 179.632 89.762C182.013 90.7901 184.015 92.3864 185.639 94.5508C187.316 96.6612 188.155 99.502 188.155 103.073C188.155 105.941 187.37 108.647 185.801 111.19C184.286 113.733 182.04 115.789 179.064 117.359C176.142 118.874 172.679 119.631 168.675 119.631Z" fill="white"/>
<path d="M217.579 73.6099C221.096 73.6099 224.235 74.3404 226.994 75.8014C229.808 77.2624 231.999 79.4269 233.569 82.2947C235.138 85.1626 235.923 88.6257 235.923 92.684V119.063H226.751V94.0639C226.751 90.0596 225.75 87.0024 223.748 84.8921C221.745 82.7276 219.013 81.6454 215.55 81.6454C212.087 81.6454 209.327 82.7276 207.271 84.8921C205.269 87.0024 204.268 90.0596 204.268 94.0639V119.063H195.015V74.3404H204.268V79.4539C205.783 77.6141 207.704 76.1802 210.03 75.1521C212.411 74.124 214.927 73.6099 217.579 73.6099Z" fill="white"/>
<path d="M240.583 96.4988C240.583 92.0076 241.502 88.0305 243.342 84.5674C245.236 81.1043 247.779 78.4258 250.972 76.5319C254.219 74.5839 257.79 73.6099 261.686 73.6099C265.203 73.6099 268.26 74.3134 270.858 75.7203C273.509 77.073 275.619 78.7775 277.189 80.8337V74.3404H286.523V119.063H277.189V112.407C275.619 114.518 273.482 116.276 270.776 117.683C268.071 119.09 264.987 119.794 261.524 119.794C257.682 119.794 254.164 118.82 250.972 116.872C247.779 114.869 245.236 112.11 243.342 108.593C241.502 105.021 240.583 100.99 240.583 96.4988ZM277.189 96.6612C277.189 93.5769 276.539 90.8984 275.241 88.6257C273.996 86.3531 272.346 84.6215 270.289 83.4311C268.233 82.2406 266.015 81.6454 263.634 81.6454C261.253 81.6454 259.034 82.2406 256.978 83.4311C254.922 84.5674 253.245 86.2719 251.946 88.5445C250.701 90.7631 250.079 93.4145 250.079 96.4988C250.079 99.5832 250.701 102.289 251.946 104.615C253.245 106.942 254.922 108.728 256.978 109.972C259.089 111.163 261.307 111.758 263.634 111.758C266.015 111.758 268.233 111.163 270.289 109.972C272.346 108.782 273.996 107.05 275.241 104.778C276.539 102.451 277.189 99.7455 277.189 96.6612Z" fill="white"/>
<path d="M303.871 80.9149C305.44 78.8587 307.577 77.1271 310.283 75.7203C312.988 74.3134 316.046 73.6099 319.455 73.6099C323.351 73.6099 326.895 74.5839 330.088 76.5319C333.334 78.4258 335.877 81.1043 337.717 84.5674C339.557 88.0305 340.477 92.0076 340.477 96.4988C340.477 100.99 339.557 105.021 337.717 108.593C335.877 112.11 333.334 114.869 330.088 116.872C326.895 118.82 323.351 119.794 319.455 119.794C316.046 119.794 313.016 119.117 310.364 117.764C307.713 116.358 305.548 114.626 303.871 112.57V140.329H294.618V74.3404H303.871V80.9149ZM331.062 96.4988C331.062 93.4145 330.412 90.7631 329.114 88.5445C327.869 86.2719 326.192 84.5674 324.081 83.4311C322.025 82.2406 319.806 81.6454 317.426 81.6454C315.099 81.6454 312.88 82.2406 310.77 83.4311C308.714 84.6215 307.036 86.3531 305.738 88.6257C304.493 90.8984 303.871 93.5769 303.871 96.6612C303.871 99.7455 304.493 102.451 305.738 104.778C307.036 107.05 308.714 108.782 310.77 109.972C312.88 111.163 315.099 111.758 317.426 111.758C319.806 111.758 322.025 111.163 324.081 109.972C326.192 108.728 327.869 106.942 329.114 104.615C330.412 102.289 331.062 99.5832 331.062 96.4988Z" fill="white"/>
<path d="M364.156 119.631C360.368 119.631 356.959 118.982 353.929 117.683C350.899 116.33 348.518 114.437 346.786 112.002C345.055 109.567 344.189 106.726 344.189 103.479H354.091C354.308 105.914 355.255 107.916 356.932 109.485C358.664 111.055 361.071 111.839 364.156 111.839C367.348 111.839 369.837 111.082 371.623 109.567C373.409 107.997 374.302 105.995 374.302 103.56C374.302 101.666 373.733 100.124 372.597 98.9338C371.515 97.7434 370.135 96.8235 368.458 96.1742C366.834 95.5248 364.562 94.8214 361.64 94.0639C357.96 93.0899 354.957 92.1159 352.63 91.1419C350.358 90.1138 348.41 88.5445 346.786 86.4342C345.163 84.3239 344.351 81.5101 344.351 77.9929C344.351 74.7463 345.163 71.9054 346.786 69.4705C348.41 67.0355 350.682 65.1686 353.604 63.87C356.526 62.5713 359.908 61.922 363.75 61.922C369.215 61.922 373.679 63.3018 377.142 66.0615C380.66 68.767 382.608 72.5007 382.986 77.2624H372.759C372.597 75.2062 371.623 73.4476 369.837 71.9866C368.052 70.5256 365.698 69.7951 362.776 69.7951C360.125 69.7951 357.96 70.4715 356.283 71.8243C354.605 73.1771 353.767 75.125 353.767 77.6683C353.767 79.3998 354.281 80.8337 355.309 81.9701C356.391 83.0523 357.744 83.9181 359.367 84.5674C360.99 85.2167 363.209 85.9202 366.023 86.6777C369.756 87.7058 372.786 88.7339 375.113 89.762C377.494 90.7901 379.496 92.3864 381.12 94.5508C382.797 96.6612 383.636 99.502 383.636 103.073C383.636 105.941 382.851 108.647 381.282 111.19C379.767 113.733 377.521 115.789 374.545 117.359C371.623 118.874 368.16 119.631 364.156 119.631Z" fill="white"/>
<path d="M413.628 73.6099C417.037 73.6099 420.067 74.3404 422.719 75.8014C425.424 77.2624 427.534 79.4269 429.05 82.2947C430.619 85.1626 431.403 88.6257 431.403 92.684V119.063H422.232V94.0639C422.232 90.0596 421.231 87.0024 419.228 84.8921C417.226 82.7276 414.494 81.6454 411.031 81.6454C407.568 81.6454 404.808 82.7276 402.752 84.8921C400.75 87.0024 399.749 90.0596 399.749 94.0639V119.063H390.496V59H399.749V79.5351C401.318 77.6412 403.293 76.1802 405.674 75.1521C408.109 74.124 410.76 73.6099 413.628 73.6099Z" fill="white"/>
<path d="M458.547 119.794C454.326 119.794 450.511 118.847 447.102 116.953C443.693 115.005 441.015 112.299 439.067 108.836C437.119 105.319 436.145 101.261 436.145 96.6612C436.145 92.1159 437.146 88.0846 439.148 84.5674C441.15 81.0502 443.883 78.3446 447.346 76.4508C450.809 74.5569 454.678 73.6099 458.952 73.6099C463.227 73.6099 467.096 74.5569 470.559 76.4508C474.022 78.3446 476.755 81.0502 478.757 84.5674C480.759 88.0846 481.76 92.1159 481.76 96.6612C481.76 101.206 480.732 105.238 478.676 108.755C476.62 112.272 473.806 115.005 470.235 116.953C466.717 118.847 462.821 119.794 458.547 119.794ZM458.547 111.758C460.927 111.758 463.146 111.19 465.202 110.054C467.313 108.917 469.017 107.213 470.316 104.94C471.614 102.667 472.264 99.9078 472.264 96.6612C472.264 93.4145 471.641 90.6819 470.397 88.4634C469.152 86.1907 467.502 84.4862 465.446 83.3499C463.389 82.2136 461.171 81.6454 458.79 81.6454C456.409 81.6454 454.191 82.2136 452.134 83.3499C450.132 84.4862 448.536 86.1907 447.346 88.4634C446.155 90.6819 445.56 93.4145 445.56 96.6612C445.56 101.477 446.777 105.211 449.212 107.862C451.702 110.459 454.813 111.758 458.547 111.758Z" fill="white"/>
<path d="M497.644 81.8889V106.645C497.644 108.322 498.023 109.54 498.78 110.297C499.592 111.001 500.945 111.352 502.839 111.352H508.52V119.063H501.215C497.049 119.063 493.856 118.089 491.638 116.141C489.419 114.193 488.31 111.028 488.31 106.645V81.8889H483.034V74.3404H488.31V63.2206H497.644V74.3404H508.52V81.8889H497.644Z" fill="white"/>
</svg>
