<svg width="510" height="167" viewBox="0 0 510 167" fill="none" xmlns="http://www.w3.org/2000/svg">
<path d="M239.894 70.9976C245.802 70.9976 250.628 72.6712 254.339 76.0444C258.071 79.4371 259.904 84.6423 259.904 91.5864C259.904 98.538 257.985 103.98 254.103 107.862L254.102 107.861C250.285 111.733 245.402 113.664 239.48 113.664C233.626 113.664 228.829 111.989 225.119 108.617C221.387 105.224 219.553 100.019 219.553 93.0747C219.553 86.1245 221.444 80.6836 225.271 76.8013L225.272 76.7993C229.143 72.9287 234.026 70.9977 239.894 70.9976ZM162.111 54.6304C167.606 54.6304 173.181 55.5734 178.833 57.4575L179.172 57.5708L179.039 57.9028L178.708 58.73L178.585 59.0386L178.274 58.9194C173.291 57.0026 168.593 56.0484 164.178 56.0483C159.813 56.0483 156.449 56.9762 154.048 58.7905C151.659 60.5958 150.462 63.0831 150.462 66.2915C150.462 70.1628 152.461 73.1733 156.559 75.3315L157.264 75.6782C158.926 76.4797 160.716 77.2395 162.633 77.9585C164.902 78.7332 167.171 79.6191 169.438 80.6147C171.715 81.6141 173.8 82.7529 175.691 84.0327C177.617 85.3351 179.167 87.1437 180.347 89.4458C181.537 91.7137 182.122 94.6107 182.122 98.1167C182.122 101.601 181.136 104.599 179.155 107.089C177.188 109.562 174.791 111.256 171.968 112.16L171.964 112.161C169.224 112.999 166.021 113.415 162.359 113.416C155.523 113.416 149.666 111.719 144.807 108.312L144.545 108.128L144.714 107.858L145.127 107.196L145.326 106.877L145.622 107.11C147.402 108.512 149.705 109.681 152.544 110.609C155.431 111.48 158.372 111.915 161.367 111.915C165.778 111.915 169.514 110.908 172.591 108.911C175.685 106.883 177.231 103.934 177.231 100.018C177.231 95.7429 175.214 92.4019 171.115 89.9751C169.257 88.8819 167.204 87.8695 164.958 86.938L164.955 86.937C162.75 85.9997 160.516 85.0349 158.256 84.0425L158.249 84.0396C155.975 82.9858 153.893 81.8199 152.003 80.5415V80.5405C147.721 77.7221 145.572 73.7042 145.572 68.5239C145.572 64.4169 146.954 61.0713 149.731 58.521C152.518 55.907 156.666 54.6304 162.111 54.6304ZM203.165 70.9976C206.208 70.9976 208.695 71.3009 210.613 71.9194H210.614C212.579 72.4808 214.054 73.3064 214.995 74.4233L215 74.4292C216.436 76.2102 217.142 78.4946 217.142 81.2534V107.127C217.142 108.683 217.436 109.842 217.984 110.646C218.539 111.336 219.054 111.694 219.525 111.802L219.726 111.833L219.741 111.834L219.758 111.837L220.635 111.998H223.506V113.333H218.127C215.823 113.333 213.999 112.828 212.705 111.769L212.699 111.764C211.509 110.744 210.827 109.675 210.764 108.552L210.682 107.147L210.681 107.137V81.1714C210.681 76.8554 209.56 74.2448 207.475 73.1226C206.377 72.6018 205 72.3325 203.33 72.3325C199.904 72.3326 196.818 73.6937 194.062 76.4497L194.061 76.4526C191.268 79.1904 189.945 81.5865 189.945 83.6509V113.333H183.485V71.3276H189.945V79.5728C190.976 77.6653 192.533 75.8788 194.604 74.2124C197.193 72.0748 200.05 70.9976 203.165 70.9976ZM317.11 71.3638C317.282 71.4498 317.442 71.6016 317.591 71.7798C317.74 71.9588 317.897 72.1886 318.062 72.4634L318.206 72.6782C318.519 73.1667 318.718 73.6349 318.778 74.0796C318.891 74.5366 318.95 74.9725 318.95 75.3853C318.95 76.9242 318.608 78.4845 317.931 80.064L317.928 80.0708L302.883 113.135L302.793 113.333H301.516L301.434 113.114L289.814 81.8882L275.604 113.135L275.515 113.333H274.237L274.155 113.114L258.78 71.7827L258.611 71.3276H265.117L265.198 71.5483L277.563 105.006L289.068 79.9985L286.058 71.7808L285.892 71.3276H292.396L292.478 71.5483L304.842 105.007L316.488 79.7896L316.494 79.7769L316.501 79.7642C317.128 78.6672 317.449 77.3494 317.449 75.7983C317.449 74.262 317.026 73.1509 316.232 72.4067L315.979 72.1685L316.893 71.2544L317.11 71.3638ZM240.06 72.3325C235.992 72.3325 232.615 74.144 229.915 77.8159L229.914 77.8179C227.218 81.4309 225.848 86.5302 225.848 93.1567C225.848 99.7374 227.111 104.552 229.577 107.662C232.046 110.775 235.31 112.329 239.398 112.329C243.468 112.328 246.844 110.542 249.543 106.925C252.24 103.256 253.609 98.1558 253.609 91.5864C253.609 84.9499 252.346 80.1087 249.88 76.9995C247.411 73.8864 244.148 72.3326 240.06 72.3325Z" fill="white" stroke="white" stroke-width="0.674298"/>
<path d="M368.503 70.9976C371.358 70.9976 373.747 71.2536 375.659 71.7739C377.57 72.2938 379.029 73.0832 379.996 74.1675C381.472 75.8133 382.231 77.5715 382.231 79.4351V107.127C382.232 108.682 382.526 109.841 383.074 110.645C383.629 111.336 384.144 111.694 384.615 111.802L384.815 111.833L384.832 111.834L384.848 111.837L385.725 111.998H388.597V113.333H385.696C381.939 113.333 379.257 112.621 377.776 111.09L377.543 110.863C376.411 109.729 375.771 108.672 375.771 107.706V107.189C374.49 109.17 372.903 110.705 371.005 111.781C368.782 113.041 366.153 113.664 363.13 113.664C359.61 113.664 356.806 112.868 354.757 111.235C352.704 109.598 351.453 107.155 350.976 103.953V103.952C350.863 103.275 350.807 102.597 350.807 101.919C350.807 101.169 350.923 100.368 351.149 99.5181C351.394 98.6027 352.08 97.6411 353.145 96.6323C354.251 95.5841 355.988 94.7661 358.312 94.1538C360.641 93.54 363.593 93.124 367.159 92.9028C368.927 92.7373 370.56 92.6548 372.058 92.6548C373.405 92.6548 374.643 92.7022 375.771 92.7925V79.5571C375.754 79.5286 375.74 79.5007 375.729 79.4731C375.697 79.384 375.688 79.29 375.688 79.2075C375.689 79.044 375.723 78.8432 375.779 78.6177C375.867 78.224 375.787 77.6979 375.472 77.0142L375.465 77.0005L375.46 76.9858C375.195 76.2439 374.823 75.5261 374.343 74.8325C373.901 74.1943 373.089 73.6204 371.852 73.1362L371.841 73.1313C370.631 72.6054 369.028 72.3326 367.016 72.3325C365.017 72.3325 362.651 72.7117 359.914 73.478L359.91 73.479C357.217 74.1934 355.267 74.9006 354.038 75.5952L353.746 75.7612L353.579 75.4692L353.249 74.8911L353.066 74.5708L353.4 74.4175C358.346 72.1391 363.381 70.9976 368.503 70.9976ZM436.658 70.9976C441.25 70.9976 445.134 72.3717 448.288 75.1313C451.467 77.9131 453.032 82.0134 453.032 87.3706V88.5347H423.488C423.346 89.9167 423.273 91.3474 423.273 92.8267C423.273 99.6322 424.456 104.558 426.76 107.667L426.983 107.955C429.315 110.877 432.312 112.329 435.997 112.329C441.474 112.329 446.337 111.506 450.59 109.871L450.893 109.754L451.021 110.052L451.269 110.631L451.406 110.953L451.081 111.079C446.627 112.804 441.597 113.664 435.997 113.664C430.414 113.664 425.835 111.986 422.291 108.611C418.728 105.217 416.979 100.015 416.979 93.0747C416.979 86.1273 418.814 80.6879 422.527 76.8052C426.233 72.9314 430.952 70.9976 436.658 70.9976ZM395.625 50.6626V91.2769L413.221 71.4409L413.321 71.3276H415.049L414.552 71.8882L401.252 86.9019L418.877 112.806L419.235 113.333H412.634L412.533 113.186L397.485 91.063L395.625 93.1997V113.333H389.164V50.6626H395.625ZM371.562 93.9897C370.087 93.9897 368.612 94.071 367.137 94.2349L367.138 94.2358C365.058 94.4822 363.354 94.8365 362.021 95.2944C360.683 95.7536 359.743 96.3088 359.162 96.9399C357.967 98.2387 357.351 100.05 357.351 102.416C357.351 102.736 357.365 103.088 357.396 103.473L357.432 103.87V103.875C357.677 106.761 358.402 108.873 359.565 110.258C360.717 111.63 362.331 112.329 364.453 112.329C367.289 112.329 369.83 111.367 372.086 109.433C374.423 107.422 375.611 105.545 375.771 103.806V94.1343C374.392 94.0396 372.989 93.9897 371.562 93.9897ZM436.328 72.3325C433.301 72.3325 430.576 73.6538 428.148 76.3501L428.149 76.3511C425.844 78.9705 424.342 82.5779 423.659 87.1987H446.729C446.634 82.1143 445.625 78.4027 443.75 76.0063C441.828 73.5507 439.363 72.3326 436.328 72.3325ZM345.045 107.127C345.045 108.683 345.339 109.842 345.888 110.646C346.442 111.336 346.957 111.694 347.429 111.802L347.629 111.833L347.645 111.834L347.661 111.837L348.538 111.998H351.409V113.333H348.51C343.628 113.333 340.391 112.059 339.033 109.344C338.743 108.764 338.584 108.215 338.584 107.706V107.702L339.313 51.3472C335.821 51.5101 333.305 53.3521 331.754 55.73L331.752 55.7329C330.156 58.1264 329.329 62.1195 329.329 67.7798V71.3276H335.859V73.3374H329.329V113.333H322.868V73.3374H321.133V71.3276H322.868V67.7798C322.868 61.7391 324.168 57.3554 326.854 54.7261C329.484 52.0983 333.666 50.7705 339.321 50.6685L339.322 50.6567L339.661 50.6626L344.713 50.7446L345.045 50.7505V107.127Z" fill="white" stroke="white" stroke-width="0.674298"/>
<path d="M460.323 50.1319V52.3157H457.84V58.9598H455.483V52.3157H453V50.1319H460.323Z" fill="white"/>
<path d="M470 49.9995V58.9995H467.643V54.6319L465.916 56.6833H465.211L463.484 54.6319V58.9995H461.127V49.9995H461.959L465.563 53.8377L469.168 49.9995H470Z" fill="white"/>
<path fill-rule="evenodd" clip-rule="evenodd" d="M80.4814 98.6169L80.4454 127L86.4454 127.008L86.4815 98.4923L97.4268 124.823L102.967 122.52L92.0971 96.3701L112.096 116.42L116.344 112.183L96.2593 92.0468L122.528 102.948L124.827 97.4068L98.5558 86.5037H127V80.5037H98.624L124.852 69.6717L122.561 64.126L96.4456 74.9118L116.527 55.0354L112.307 50.771L91.9757 70.894L102.932 44.4695L97.3891 42.1715L86.5197 68.3874L86.5557 40.0076L80.5557 40L80.5195 68.5179L69.5732 42.1844L64.0328 44.4874L74.9019 70.6351L54.9043 50.5867L50.6563 54.824L70.7417 74.9604L44.4727 64.0584L42.1728 69.6001L68.4456 80.5037H40V86.5037H68.3781L42.1493 97.3362L44.4396 102.882L70.554 92.0966L50.4729 111.972L54.6937 116.237L75.0236 96.1148L64.0683 122.538L69.6107 124.836L80.4814 98.6169Z" fill="white"/>
</svg>
