<svg width="370" height="172" viewBox="0 0 370 172" fill="none" xmlns="http://www.w3.org/2000/svg">
<path d="M193.297 84.5893C191.606 86.2333 190.761 88.6288 190.761 91.7759V111.433H179.488V72.8231H188.436V85.5644C188.864 81.9276 189.945 78.9956 191.677 76.7687C194.025 73.8095 197.407 72.3299 201.823 72.3299H203.302V82.0529H200.484C197.384 82.0529 194.988 82.8984 193.297 84.5893Z" fill="black"/>
<path fill-rule="evenodd" clip-rule="evenodd" d="M227.468 106.713C227.952 105.892 228.352 104.986 228.666 103.995V111.433H237.614V87.7599C237.614 84.1901 236.909 81.2779 235.5 79.0233C234.091 76.7217 232.024 75.0072 229.3 73.8799C226.623 72.7526 223.311 72.189 219.366 72.189C218.004 72.189 216.547 72.2125 214.997 72.2594C213.447 72.3064 211.944 72.3769 210.488 72.4708C209.032 72.5647 207.764 72.6587 206.684 72.7526V82.2643C208.14 82.1703 209.76 82.0764 211.545 81.9824C213.33 81.8885 215.068 81.818 216.759 81.7711C218.45 81.7241 219.812 81.7006 220.845 81.7006C222.912 81.7006 224.415 82.1938 225.355 83.1802C226.294 84.1666 226.764 85.6462 226.764 87.619V87.7599H219.788C216.36 87.7599 213.33 88.2061 210.7 89.0985C208.069 89.944 206.026 91.2827 204.57 93.1146C203.114 94.8995 202.386 97.201 202.386 100.019C202.386 102.603 202.973 104.834 204.147 106.713C205.321 108.545 206.942 109.954 209.009 110.94C211.122 111.926 213.565 112.42 216.336 112.42C219.013 112.42 221.268 111.926 223.1 110.94C224.979 109.954 226.435 108.545 227.468 106.713ZM225.636 101.64C226.294 100.559 226.67 99.0564 226.764 97.1306V94.0305H219.718C217.745 94.0305 216.219 94.5237 215.138 95.5101C214.105 96.4495 213.588 97.7412 213.588 99.3852C213.588 100.935 214.105 102.203 215.138 103.19C216.219 104.129 217.745 104.599 219.718 104.599C220.986 104.599 222.114 104.388 223.1 103.965C224.133 103.495 224.979 102.72 225.636 101.64Z" fill="black"/>
<path d="M260.988 112.772C257.653 112.772 254.741 112.232 252.251 111.151C249.809 110.024 247.766 108.521 246.122 106.642C244.478 104.763 243.256 102.65 242.458 100.301C241.659 97.9056 241.26 95.4396 241.26 92.9032V91.5645C241.26 88.9341 241.683 86.4212 242.528 84.0257C243.374 81.5832 244.619 79.4225 246.263 77.5437C247.906 75.6648 249.95 74.1852 252.392 73.1049C254.882 72.0246 257.723 71.4844 260.917 71.4844C264.393 71.4844 267.47 72.1655 270.147 73.5277C272.825 74.8428 274.962 76.6982 276.559 79.0937C278.156 81.4892 279.048 84.237 279.236 87.3371H268.174C267.987 85.5992 267.282 84.1431 266.061 82.9688C264.887 81.7476 263.172 81.137 260.917 81.137C259.039 81.137 257.465 81.6067 256.197 82.5461C254.976 83.4855 254.06 84.7772 253.449 86.4212C252.838 88.0652 252.533 90.0145 252.533 92.2691C252.533 94.3358 252.815 96.2147 253.379 97.9056C253.942 99.5496 254.835 100.841 256.056 101.781C257.324 102.673 258.968 103.119 260.988 103.119C262.491 103.119 263.759 102.861 264.793 102.344C265.873 101.781 266.718 101.029 267.329 100.09C267.987 99.1034 268.386 97.9761 268.527 96.7078H279.518C279.377 99.9019 278.485 102.72 276.841 105.163C275.197 107.558 273.012 109.437 270.288 110.799C267.564 112.114 264.464 112.772 260.988 112.772Z" fill="black"/>
<path fill-rule="evenodd" clip-rule="evenodd" d="M292.153 111.081C294.689 112.208 297.601 112.772 300.889 112.772C304.13 112.772 306.996 112.208 309.485 111.081C311.975 109.954 314.041 108.38 315.685 106.36C317.329 104.341 318.433 102.039 318.997 99.4557H308.64C308.17 100.63 307.277 101.616 305.962 102.415C304.647 103.213 302.956 103.613 300.889 103.613C298.635 103.613 296.803 103.143 295.394 102.203C293.985 101.264 292.951 99.9488 292.294 98.2579C291.927 97.2887 291.663 96.2318 291.5 95.0873H319.701V91.2827C319.701 87.7599 318.95 84.5189 317.447 81.5597C315.944 78.5536 313.759 76.1345 310.894 74.3027C308.076 72.4238 304.6 71.4844 300.467 71.4844C297.32 71.4844 294.501 72.0481 292.012 73.1754C289.569 74.2557 287.526 75.7353 285.882 77.6141C284.238 79.493 282.97 81.6302 282.078 84.0257C281.232 86.3742 280.809 88.8402 280.809 91.4236V92.8327C280.809 95.3222 281.232 97.7647 282.078 100.16C282.97 102.509 284.238 104.646 285.882 106.572C287.573 108.451 289.663 109.954 292.153 111.081ZM291.587 88.6758C291.763 87.6656 292.022 86.7497 292.364 85.928C293.069 84.1901 294.102 82.8749 295.464 81.9824C296.826 81.09 298.494 80.6438 300.467 80.6438C302.393 80.6438 303.99 81.09 305.258 81.9824C306.573 82.8279 307.559 84.0726 308.217 85.7166C308.573 86.6067 308.833 87.593 308.996 88.6758H291.587Z" fill="black"/>
<path d="M152.647 111.433V70.0753H138.203V60H178.716V70.0753H164.202V111.433H152.647Z" fill="black"/>
<path fill-rule="evenodd" clip-rule="evenodd" d="M85.5583 56.4652C69.4906 56.4652 56.4652 69.4906 56.4652 85.5583C56.4652 101.626 69.4906 114.652 85.5583 114.652C101.626 114.652 114.652 101.626 114.652 85.5583C114.652 69.4906 101.626 56.4652 85.5583 56.4652ZM50 85.5583C50 65.92 65.92 50 85.5583 50C105.197 50 121.117 65.92 121.117 85.5583C121.117 105.197 105.197 121.117 85.5583 121.117C65.92 121.117 50 105.197 50 85.5583Z" fill="black"/>
<path fill-rule="evenodd" clip-rule="evenodd" d="M103.297 73.503C104.245 70.518 101.414 67.7144 98.4385 68.6908L78.1688 75.3418C76.9955 75.7268 76.0788 76.6524 75.7052 77.8294L69.4244 97.6136C68.4768 100.599 71.3076 103.402 74.2834 102.426L94.553 95.7749C95.7263 95.3899 96.643 94.4643 97.0167 93.2873L103.297 73.503ZM86.3572 90.1761C88.9076 90.1761 90.9751 88.1086 90.9751 85.5582C90.9751 83.0078 88.9076 80.9403 86.3572 80.9403C83.8068 80.9403 81.7393 83.0078 81.7393 85.5582C81.7393 88.1086 83.8068 90.1761 86.3572 90.1761Z" fill="black"/>
</svg>
